<svg width="234" height="344" viewBox="0 0 234 344" fill="none" xmlns="http://www.w3.org/2000/svg">
<path d="M95.3281 68.25V273H78.0312V68.25H95.3281ZM221.891 68.25L133.578 162.047L89.1406 205.781L87.4531 186.516L123.172 149.391L200.234 68.25H221.891ZM207.547 273L121.344 167.812L131.75 153.891L228.5 273H207.547Z" fill="white"/>
<path d="M150.448 219.183V232H58.2852V219.183H150.448ZM62.6797 54.2656V232H47.665V54.2656H62.6797Z" fill="white"/>
<path d="M187.898 217.328H211.922C209.969 236.469 204.695 253.005 196.102 266.938C187.508 280.74 175.789 291.352 160.945 298.773C146.102 306.195 128.198 309.906 107.234 309.906C91.0885 309.906 76.4401 306.846 63.2891 300.727C50.2682 294.607 39.0703 285.948 29.6953 274.75C20.3203 263.422 13.0938 249.88 8.01562 234.125C2.9375 218.37 0.398438 200.857 0.398438 181.586V146.039C0.398438 126.768 2.9375 109.32 8.01562 93.6953C13.0938 77.9401 20.3854 64.3984 29.8906 53.0703C39.3958 41.7422 50.7891 33.0182 64.0703 26.8984C77.3516 20.7786 92.3255 17.7188 108.992 17.7188C129.174 17.7188 146.622 21.4297 161.336 28.8516C176.049 36.1432 187.638 46.6901 196.102 60.4922C204.695 74.2943 209.969 90.9609 211.922 110.492H187.898C186.076 95.1276 182.039 82.1068 175.789 71.4297C169.539 60.7526 160.88 52.6146 149.812 47.0156C138.875 41.2865 125.268 38.4219 108.992 38.4219C95.7109 38.4219 83.862 40.9609 73.4453 46.0391C63.0286 51.1172 54.1745 58.4089 46.8828 67.9141C39.5911 77.2891 33.9922 88.5521 30.0859 101.703C26.3099 114.854 24.4219 129.503 24.4219 145.648V181.586C24.4219 197.211 26.2448 211.599 29.8906 224.75C33.5365 237.901 38.875 249.294 45.9062 258.93C53.0677 268.565 61.7917 276.052 72.0781 281.391C82.3646 286.729 94.0833 289.398 107.234 289.398C124.031 289.398 138.029 286.729 149.227 281.391C160.555 275.922 169.344 267.849 175.594 257.172C181.844 246.495 185.945 233.214 187.898 217.328Z" fill="white"/>
</svg>
